<?xml version="1.0" standalone="no"?>
<!DOCTYPE svg PUBLIC "-//W3C//DTD SVG 20010904//EN"
 "http://www.w3.org/TR/2001/REC-SVG-20010904/DTD/svg10.dtd">
<svg version="1.0" xmlns="http://www.w3.org/2000/svg"
 width="413.000000pt" height="413.000000pt" viewBox="0 0 413.000000 413.000000"
 preserveAspectRatio="xMidYMid meet">
<metadata>
Created by potrace 1.14, written by Peter Selinger 2001-2017
</metadata>
<g transform="translate(0.000000,413.000000) scale(0.100000,-0.100000)"
fill="#000000" stroke="none">
<path d="M3407 4073 c-1 0 -43 -3 -93 -5 -101 -5 -139 -21 -150 -63 -3 -14
-12 -25 -19 -25 -7 0 -38 -30 -70 -66 -235 -267 -658 -408 -1200 -398 -191 3
-210 4 -340 29 -179 33 -332 98 -445 189 -36 29 -77 60 -92 69 -16 10 -28 23
-28 31 0 7 -12 26 -26 41 -25 27 -26 27 -117 21 -51 -3 -108 -8 -127 -11 -19
-2 -61 -7 -92 -9 -74 -7 -105 -22 -117 -57 -15 -42 -9 -56 66 -170 86 -129
202 -322 272 -452 60 -111 60 -102 -9 -197 -99 -135 -182 -318 -231 -507 -37
-146 -44 -203 -43 -383 1 -155 6 -217 29 -320 3 -14 8 -35 11 -47 14 -69 72
-223 120 -318 102 -206 268 -405 451 -543 45 -34 84 -62 87 -62 3 0 22 -12 43
-26 102 -69 298 -148 463 -185 197 -44 452 -46 650 -4 510 108 928 464 1123
956 40 101 78 254 93 374 14 112 8 346 -10 435 -60 287 -144 481 -299 688
l-39 52 77 183 c110 259 252 584 279 637 29 57 27 97 -8 127 -25 22 -36 23
-118 21 -49 -2 -90 -4 -91 -5z"/>
<path d="M3120 469 c-16 -17 -30 -38 -31 -47 -2 -36 4 -67 14 -74 7 -4 6 -19
-4 -50 l-14 -43 -5 45 c-7 56 -26 86 -65 104 -41 19 -776 20 -802 1 -13 -10
-16 -31 -14 -123 l1 -112 -42 -1 c-48 -1 -81 1 -87 6 -2 2 -3 49 -2 105 1 55
-3 108 -8 118 -9 17 -25 19 -148 19 -104 0 -142 -3 -154 -13 -14 -12 -22 -12
-56 4 -37 16 -87 19 -211 13 -33 -2 -102 -70 -104 -103 -1 -16 -4 -28 -5 -28
-4 0 -43 88 -43 97 0 19 -42 32 -104 32 -80 0 -90 -9 -126 -104 -29 -79 -39
-89 -35 -37 4 51 -17 98 -55 121 -27 16 -52 19 -173 19 -102 0 -148 -4 -163
-13 -16 -11 -24 -11 -33 -2 -16 16 -288 21 -318 5 -23 -11 -23 -15 -23 -193 0
-150 3 -185 15 -195 20 -16 244 -19 307 -4 36 9 50 9 57 0 5 -6 36 -11 72 -10
72 1 91 17 87 74 -3 30 0 35 20 38 20 3 22 -1 22 -38 0 -66 13 -73 143 -72 62
0 120 0 130 1 10 1 26 14 35 31 20 36 67 42 77 11 11 -35 33 -44 100 -42 36 1
75 1 88 0 134 -6 246 -2 260 10 14 11 20 11 32 1 20 -16 1070 -19 1086 -3 5 5
10 31 11 57 0 41 3 47 21 44 15 -2 21 -12 24 -43 6 -63 17 -68 140 -68 59 1
115 2 123 2 9 1 24 15 33 31 13 22 26 30 45 30 20 0 30 -7 40 -30 10 -22 21
-30 40 -31 93 -4 118 -3 123 3 3 4 21 3 40 -2 44 -13 178 -11 211 4 37 16 84
59 101 92 8 17 15 61 16 109 1 72 -2 84 -26 119 -54 76 -90 90 -224 89 -87 -1
-123 -15 -167 -69 -29 -35 -30 -35 -37 -14 -4 12 -3 25 2 29 31 20 40 104 13
121 -6 4 -58 7 -116 8 -103 1 -104 0 -134 -29z m501 -236 c10 -27 -11 -67 -38
-71 -31 -5 -57 37 -44 71 5 14 16 27 23 29 21 8 51 -7 59 -29z"/>
</g>
</svg>
